<svg width="519" height="443" viewBox="0 0 519 443" fill="none" xmlns="http://www.w3.org/2000/svg">
<circle cx="106" cy="306" r="33" fill="#B9FF66"/>
<path d="M499.591 208.144L489.054 186.4L478.817 208.287L460.67 220.449L479.622 232.857L489.947 254.602L499.76 232.718L518.328 220.052L499.591 208.144Z" fill="#B9FF66"/>
<path d="M411.09 382.377L388.596 373.555L395.928 396.578L390.851 417.826L413.192 414.079L435.531 423.046L427.889 400.313L432.933 378.41L411.09 382.377Z" fill="#B9FF66"/>
<path d="M197.601 111.157C211.601 89.957 229.767 82.657 237.101 81.657C247.101 69.257 343.267 129.49 390.101 161.157C405.301 163.957 412.101 174.99 413.601 180.157C420.101 215.99 433.601 290.857 435.601 303.657C437.601 316.457 424.767 328.657 418.101 333.157C339.101 348.157 176.601 378.757 158.601 381.157C140.601 383.557 131.434 372.157 129.101 366.157C122.434 330.824 108.301 256.257 105.101 240.657C101.901 225.057 106.434 212.824 109.101 208.657L197.601 111.157Z" fill="white" stroke="#1F1F1F" stroke-width="5"/>
<path d="M195.101 116.157C214.301 93.7574 232.101 85.1574 238.601 83.6574C245.589 80.8574 258.846 84.824 264.601 87.1574L392.101 161.657L400.101 181.657L279.101 305.657L106.601 215.657L195.101 116.157Z" fill="#B9FF66" stroke="black" stroke-width="5"/>
<path d="M357.601 88.1572L124.601 151.657C129.401 154.457 156.934 270.491 170.101 328.157L403.101 279.657L387.101 182.157C387.501 166.557 367.601 112.991 357.601 88.1572Z" fill="white" stroke="black" stroke-width="5"/>
<path d="M227.491 278.762L141.601 236.883V278.762L171.586 338.657L419.601 296.779L406.387 170.657H397.747L375.893 192.57L320.496 257.335L227.491 278.762Z" fill="white"/>
<path d="M306.101 260.657L398.601 168.657C398.101 166.491 393.501 160.257 379.101 152.657" stroke="black" stroke-width="5"/>
<path d="M135.601 372.157L239.601 267.157C249.601 258.657 276.201 245.057 302.601 258.657L432.101 319.657" stroke="black" stroke-width="5"/>
<path d="M105.601 216.657L228.101 278.657L133.422 372.657" stroke="black" stroke-width="5"/>
<circle cx="441" cy="52" r="52" fill="#1F1F1F"/>
<circle cx="441.153" cy="42.1525" r="21.1525" fill="white"/>
<path d="M403.983 87.2538C415.735 73.8866 447.258 55.1725 479.339 87.2538C466.853 99.8866 434.302 117.572 403.983 87.2538Z" fill="white" stroke="black"/>
<path d="M438.2 47.64V46.904C438.2 45.9653 438.328 45.144 438.584 44.44C438.861 43.7147 439.213 43.0747 439.64 42.52C440.067 41.9653 440.504 41.464 440.952 41.016C441.571 40.3973 442.125 39.8427 442.616 39.352C443.107 38.84 443.352 38.2533 443.352 37.592C443.352 37.144 443.245 36.7493 443.032 36.408C442.819 36.0453 442.499 35.768 442.072 35.576C441.667 35.3627 441.155 35.256 440.536 35.256C439.747 35.256 439.053 35.5013 438.456 35.992C437.88 36.4613 437.528 37.1013 437.4 37.912L432.952 36.792C433.144 35.5973 433.581 34.552 434.264 33.656C434.968 32.76 435.864 32.056 436.952 31.544C438.061 31.032 439.299 30.776 440.664 30.776C442.328 30.776 443.725 31.1067 444.856 31.768C446.008 32.408 446.872 33.24 447.448 34.264C448.024 35.2667 448.312 36.3333 448.312 37.464C448.312 38.2747 448.152 39 447.832 39.64C447.533 40.2587 447.149 40.8347 446.68 41.368C446.211 41.88 445.72 42.3813 445.208 42.872C444.547 43.4907 443.96 44.1413 443.448 44.824C442.936 45.5067 442.68 46.3067 442.68 47.224V47.64H438.2ZM438.072 55V50.2H442.872V55H438.072Z" fill="black"/>
<path d="M200.761 220.58L203.004 189.201L210.977 187.124L228.244 213.421L221.702 215.125L218.234 209.745L207.667 212.498L207.264 218.886L200.761 220.58ZM207.97 206.839L215.208 204.953L207.246 192.477L208.872 192.054L207.97 206.839ZM240.128 210.821C238.064 211.359 236.091 211.349 234.21 210.792C232.328 210.235 230.692 209.242 229.3 207.813C227.934 206.378 226.986 204.641 226.455 202.602C225.917 200.538 225.91 198.555 226.435 196.655C226.953 194.729 227.897 193.064 229.267 191.66C230.637 190.256 232.329 189.292 234.342 188.767C235.89 188.364 237.335 188.304 238.677 188.589C240.038 188.841 241.204 189.405 242.177 190.281L241.589 191.674L238.413 179.481L244.219 177.969L251.852 207.271L246.433 208.683L245.424 204.812L246.279 205.871C245.825 207.091 245.05 208.134 243.952 208.998C242.848 209.837 241.573 210.444 240.128 210.821ZM239.464 205.414C240.522 205.138 241.387 204.651 242.059 203.952C242.731 203.254 243.172 202.409 243.383 201.417C243.618 200.418 243.589 199.352 243.293 198.216C242.997 197.081 242.503 196.135 241.81 195.378C241.142 194.615 240.345 194.093 239.417 193.811C238.489 193.529 237.497 193.526 236.439 193.801C235.381 194.077 234.493 194.584 233.776 195.322C233.078 196.027 232.611 196.879 232.375 197.877C232.132 198.85 232.159 199.904 232.454 201.039C232.75 202.175 233.245 203.121 233.938 203.877C234.631 204.634 235.454 205.149 236.408 205.425C237.387 205.693 238.406 205.689 239.464 205.414ZM263.812 204.652C262.109 205.095 260.556 205.114 259.155 204.707C257.773 204.268 256.601 203.471 255.639 202.316C254.677 201.161 253.967 199.707 253.51 197.952L250.173 185.14L255.979 183.627L259.195 195.975C259.404 196.775 259.744 197.444 260.215 197.983C260.705 198.489 261.29 198.833 261.971 199.013C262.652 199.194 263.367 199.187 264.115 198.992C264.889 198.791 265.516 198.448 265.997 197.965C266.503 197.475 266.833 196.893 266.988 196.218C267.163 195.512 267.146 194.758 266.937 193.958L263.721 181.61L269.527 180.098L275.032 201.233L269.613 202.644L268.524 198.464L269.076 199.312C268.915 200.704 268.36 201.855 267.412 202.763C266.483 203.639 265.283 204.268 263.812 204.652ZM285.939 198.888C284.416 199.284 283.036 199.382 281.799 199.181C280.561 198.979 279.528 198.504 278.7 197.756C277.864 196.982 277.282 195.962 276.952 194.698C276.643 193.511 276.642 192.395 276.948 191.35C277.248 190.28 277.872 189.291 278.821 188.383C279.795 187.468 281.087 186.663 282.697 185.968L288.889 183.239L289.998 187.496L284.831 189.876C284.046 190.246 283.484 190.681 283.146 191.183C282.802 191.658 282.72 192.244 282.902 192.941C283.07 193.586 283.446 194.026 284.03 194.259C284.615 194.493 285.268 194.515 285.991 194.327C286.946 194.078 287.73 193.654 288.345 193.052C288.96 192.451 289.371 191.752 289.576 190.954C289.801 190.124 289.802 189.283 289.581 188.432L288.149 182.935C287.94 182.135 287.443 181.548 286.657 181.175C285.896 180.794 284.974 180.745 283.89 181.027C282.858 181.296 282.016 181.819 281.364 182.595C280.737 183.364 280.365 184.26 280.245 185.283L275.026 184.287C275.129 182.992 275.522 181.802 276.203 180.715C276.885 179.628 277.797 178.688 278.94 177.894C280.084 177.1 281.404 176.508 282.901 176.118C284.681 175.654 286.34 175.567 287.875 175.856C289.411 176.145 290.704 176.772 291.755 177.738C292.825 178.672 293.558 179.9 293.955 181.423L297.585 195.358L292.166 196.769L291.278 193.363L292.534 192.788C292.157 193.878 291.675 194.831 291.087 195.645C290.494 196.433 289.769 197.091 288.914 197.616C288.066 198.168 287.074 198.592 285.939 198.888ZM301.843 194.249L296.338 173.114L301.757 171.702L302.846 175.883L302.294 175.034C302.455 173.642 303 172.508 303.929 171.632C304.878 170.724 306.087 170.078 307.558 169.695C309.158 169.278 310.639 169.251 312.001 169.612C313.389 169.967 314.576 170.664 315.563 171.702C316.543 172.714 317.241 174.02 317.658 175.62L321.197 189.207L315.391 190.719L312.175 178.372C311.959 177.546 311.607 176.88 311.117 176.374C310.652 175.861 310.08 175.514 309.399 175.333C308.744 175.146 308.029 175.153 307.255 175.354C306.507 175.549 305.879 175.892 305.373 176.382C304.867 176.872 304.524 177.457 304.343 178.138C304.188 178.812 304.218 179.562 304.433 180.388L307.649 192.736L301.843 194.249Z" fill="black" fill-opacity="0.3"/>
<path d="M7.83261 140.209C13.764 129.24 35.9566 124 77.2756 190.784C52.5118 184.426 3.95372 165.41 7.83261 140.209Z" fill="#1F1F1F"/>
<path d="M2.92374 209.789C1.21444 201.672 10.149 189.553 59.5619 206.016C44.3652 213.315 11.7623 224.29 2.92374 209.789Z" fill="#1F1F1F"/>
<path d="M74.0509 116.915C81.504 113.273 95.4396 118.973 91.5576 170.912C80.7638 157.961 62.1512 129.031 74.0509 116.915Z" fill="#1F1F1F"/>
<circle cx="215" cy="398" r="13" fill="#1F1F1F"/>
</svg>
