<svg width="852" height="724" viewBox="0 0 852 724" fill="none" xmlns="http://www.w3.org/2000/svg">
<path d="M811.937 548.716C809.577 552.897 804.95 555.889 797.917 557.564C790.886 559.238 781.641 559.544 770.386 558.503C747.886 556.422 717.713 548.996 681.948 536.889C610.441 512.684 516.874 469.871 418.215 414.179C319.556 358.486 234.556 300.498 176.885 251.783C148.04 227.417 126.091 205.421 112.684 187.233C105.978 178.134 101.463 170.061 99.2631 163.176C97.0629 156.289 97.234 150.782 99.5943 146.601C101.955 142.419 106.581 139.427 113.615 137.753C120.645 136.079 129.89 135.773 141.146 136.814C163.645 138.894 193.819 146.321 229.584 158.427C301.09 182.633 394.658 225.445 493.316 281.137C591.975 336.83 676.976 394.819 734.646 443.534C763.491 467.899 785.44 489.895 798.847 508.084C805.554 517.182 810.069 525.256 812.268 532.14C814.468 539.027 814.297 544.535 811.937 548.716Z" stroke="black" stroke-width="3"/>
<path d="M784.937 605.68C782.577 609.861 777.95 612.853 770.917 614.528C763.886 616.202 754.641 616.508 743.386 615.467C720.886 613.386 690.713 605.959 654.948 593.853C583.441 569.648 489.874 526.835 391.215 471.143C292.556 415.45 207.556 357.462 149.885 308.747C121.04 284.381 99.0914 262.385 85.6843 244.196C78.9776 235.098 74.4627 227.024 72.2631 220.14C70.0629 213.253 70.234 207.746 72.5943 203.564C74.9545 199.383 79.5814 196.391 86.6145 194.717C93.6454 193.042 102.89 192.736 114.146 193.777C136.645 195.858 166.819 203.285 202.584 215.391C274.09 239.596 367.658 282.409 466.316 338.101C564.975 393.794 649.976 451.782 707.646 500.497C736.491 524.863 758.44 546.859 771.847 565.048C778.554 574.146 783.069 582.22 785.268 589.104C787.468 595.991 787.297 601.498 784.937 605.68Z" stroke="black" stroke-width="3"/>
<path d="M751.937 654.68C749.577 658.861 744.95 661.853 737.917 663.528C730.886 665.202 721.641 665.508 710.386 664.467C687.886 662.386 657.713 654.959 621.948 642.853C550.441 618.648 456.874 575.835 358.215 520.143C259.556 464.45 174.556 406.462 116.885 357.747C88.0399 333.381 66.0914 311.385 52.6843 293.196C45.9776 284.098 41.4627 276.024 39.2631 269.14C37.0629 262.253 37.234 256.746 39.5943 252.564C41.9545 248.383 46.5814 245.391 53.6145 243.717C60.6454 242.042 69.8905 241.736 81.1457 242.777C103.645 244.858 133.819 252.285 169.584 264.391C241.09 288.596 334.658 331.409 433.316 387.101C531.975 442.794 616.976 500.782 674.646 549.497C703.491 573.863 725.44 595.859 738.847 614.048C745.554 623.146 750.069 631.22 752.268 638.104C754.468 644.991 754.297 650.498 751.937 654.68Z" stroke="black" stroke-width="3"/>
<path d="M351.305 341.717C347.823 331.716 353.107 320.787 363.108 317.305V317.305C373.108 313.823 384.038 319.107 387.52 329.108L449.983 508.507C453.465 518.508 448.181 529.437 438.18 532.919V532.919C428.18 536.401 417.25 531.117 413.768 521.116L351.305 341.717Z" fill="#1F1F1F"/>
<path d="M222 350.5L237.5 326L280 399.5L243.5 397C224.3 382.2 221.167 359.833 222 350.5Z" fill="white" stroke="black"/>
<path d="M237.432 321L278.432 279L334.433 392L271.932 399.5C235.132 369.5 233.599 334.667 237.432 321Z" fill="#1F1F1F" stroke="#1F1F1F"/>
<path d="M279.5 278.5L390.5 200.5L467.5 344.5L338.5 391.5C322.1 394.7 299.667 364.167 290.5 348.5C270.1 310.9 274.666 286.167 279.5 278.5Z" fill="#B9FF66" stroke="black"/>
<path d="M385 203L451 69L617.5 373.5L459.5 347C384.7 307.4 378.667 234.5 385 203Z" fill="white" stroke="black"/>
<circle cx="116" cy="74" r="33" fill="#1F1F1F"/>
<circle cx="781" cy="215" r="48" fill="#1F1F1F"/>
<circle cx="657" cy="53" r="53" fill="#1F1F1F"/>
<circle cx="795" cy="68" r="49" fill="#B9FF66"/>
<path d="M804.5 55.5L782 65.5V71L807.5 80.5" stroke="#1F1F1F" stroke-width="3"/>
<circle cx="808" cy="53" r="9" fill="#1F1F1F"/>
<circle cx="808" cy="81" r="9" fill="#1F1F1F"/>
<circle cx="777" cy="68" r="9" fill="#1F1F1F"/>
<circle cx="604.5" cy="607.5" r="14.5" fill="#B9FF66"/>
<path d="M626.662 169.249C649.906 214.181 662.929 258.955 665.226 294.997C666.374 313.019 664.838 328.809 660.595 341.329C656.355 353.843 649.435 363.03 639.842 367.993C630.25 372.955 618.753 373.295 606.089 369.526C593.419 365.755 579.644 357.886 565.598 346.536C537.507 323.838 508.487 287.34 485.242 242.408C461.998 197.475 448.975 152.701 446.678 116.659C445.529 98.6371 447.066 82.8473 451.308 70.3272C455.549 57.8136 462.468 48.6263 472.061 43.6638C481.654 38.7012 493.151 38.3614 505.814 42.1303C518.484 45.9011 532.26 53.7699 546.306 65.1199C574.396 87.8181 603.417 124.316 626.662 169.249Z" fill="white" stroke="black" stroke-width="2"/>
<circle cx="188" cy="131" r="22" fill="#B9FF66"/>
<path d="M586.5 126.5C620.667 173.166 678.6 282.3 637 345.5C627 356.5 594.3 364.2 543.5 307C480 235.5 445.5 116.5 467.5 79.4997C489.5 42.4997 527.5 63.9997 557 92.4997" stroke="black" stroke-width="2"/>
<path d="M478 190L519.5 178L539 210L558 254L523.5 281.5C501.5 254.7 484 209.333 478 190Z" fill="#1F1F1F"/>
<ellipse cx="538.63" cy="214.779" rx="21.0924" ry="42.8917" transform="rotate(-27.7338 538.63 214.779)" fill="#B9FF66"/>
<path d="M177.5 479L153 435.5L128.5 479L85.5 503L130 528L154 571.5L177.5 528L221.5 503L177.5 479Z" fill="#1F1F1F"/>
<path d="M445.007 605.617L422.236 597.536L430.317 620.307L425.937 641.709L448.144 637.234L470.765 645.466L462.384 622.994L466.708 600.938L445.007 605.617Z" fill="#1F1F1F"/>
<circle cx="756.5" cy="362.5" r="54.5" fill="#B9FF66" stroke="black" stroke-width="2"/>
<path d="M754.725 325C737.724 325 724 338.4 724 355C724 375 754.725 405 754.725 405C754.725 405 785.449 375 785.449 355C785.449 338.4 771.726 325 754.725 325ZM754.725 335C766.093 335 775.208 344 775.208 355C775.208 366.1 766.093 375 754.725 375C743.459 375 734.242 366.1 734.242 355C734.242 344 743.459 335 754.725 335Z" fill="#1F1F1F"/>
<path d="M804.984 209.175C807.327 209.901 807.856 212.98 805.889 214.446L773.952 238.254C772.157 239.592 769.581 238.563 769.202 236.357L763.088 200.761C762.709 198.555 764.794 196.725 766.933 197.388L804.984 209.175Z" fill="white"/>
<path d="M680.5 36.4998C670.9 26.0998 661.166 34.1665 657.5 39.4998C655.5 37.9996 646 25.5 633 42.5C622.6 56.1 647.333 74.8333 661 82.5L674 70C687.2 56 683.833 41.8332 680.5 36.4998Z" fill="white"/>
</svg>
